<svg width="812" height="375" viewBox="0 0 812 375" fill="none" xmlns="http://www.w3.org/2000/svg">
<g clip-path="url(#clip0)">
<path d="M55.487 520.953L83.7649 527.783C85.0191 528.054 86.2445 527.958 87.4555 527.678L165.256 503.095L199.091 525.743L206.648 525.15L170.873 501.361L233.44 481.669C227.77 493.198 222.823 511.319 219.529 524.323L224.635 523.922C229.363 505.633 234.966 488.014 239.656 479.703L308.832 457.83C316.678 476.609 325.047 496.824 332.673 515.435L335.328 515.227C334.295 512.537 333.276 510.031 332.039 507.358L401.824 490.609C402.172 492.429 402.316 494.264 402.665 496.084L402.331 510.149L404.782 509.956L404.767 509.773L404.782 509.956L409.683 509.571C405.173 480.925 400.619 451.729 398.879 440.044L466.91 427.127C469.565 426.918 488.325 425.075 510.601 423.51L514.35 471.241C514.365 471.425 514.365 471.425 514.379 471.608L528.517 499.868L531.172 499.659L516.787 470.865L513.037 423.134C536.743 421.457 563.526 419.722 578.346 420.036C605.098 420.521 670.148 429.819 685.126 432.152L712.53 485.414L725.601 484.387L697.236 429.353L719.463 416.709C721.04 415.847 721.96 414.481 722.238 412.797L731.313 363.504C731.606 362.004 731.286 360.551 730.164 359.346L705.641 329.686L703.645 246.722L770.327 193.089C774.515 191.467 791.281 185.162 816.015 175.646L815.092 163.897C798.34 170.385 784.974 175.499 776.19 178.775C773.287 178.448 769.962 177.971 766.228 177.525L766.439 154.05L814.058 145.507L813.885 143.304L766.893 151.982L767.322 112.974L810.814 104.201L810.641 101.998L766.93 110.603L758.052 89.135C758.038 88.9514 757.819 88.7839 757.819 88.7839L733.93 67.2016L745.691 31.1821L756.09 32.7665C756.499 32.7344 756.703 32.7184 757.097 32.5027C757.287 32.3031 757.477 32.1035 757.652 31.7203L765.936 -14.5549L765.921 -14.7385L762.316 -60.634L775.577 -77.561L798.816 -48.5391L798.485 -52.7615L781.889 -73.0695L796.826 -73.8734L796.653 -76.0763L780.272 -75.3438L776.396 -80.2113L764.593 -94.4309L783.57 -109.221L793.83 -98.9439C794.063 -98.5928 794.471 -98.6249 794.88 -98.6569L794.663 -101.411L785.307 -110.65L793.438 -117.015L793.221 -119.769L762.246 -95.5394L749.086 -93.0281L721.303 -114.489L688.93 -142.055L766.505 -159.046L791.895 -136.658L791.635 -139.963L769.335 -159.638L779.636 -161.925L779.84 -161.941L789.559 -166.399L789.371 -168.785L778.85 -164.08L712.378 -149.623L701.294 -167.778C701.28 -167.961 701.076 -167.945 700.857 -168.113L673.1 -186.621L638.236 -217.131L633.13 -216.73L620.002 -200.737L608.01 -214.756L605.15 -214.532L618.964 -198.254L632.398 -181.576L609.505 -159.09L596.038 -170.962L594.644 -193.942C594.6 -194.493 593.944 -194.995 593.332 -194.947C592.719 -194.899 592.15 -194.3 592.193 -193.75L593.616 -170.403C593.63 -170.219 593.863 -169.868 594.082 -169.7L607.987 -157.493L596.526 -146.434L563.44 -159.535C563.236 -159.519 563.017 -159.687 562.813 -159.671C562.404 -159.639 562.215 -159.439 561.821 -159.224L555.088 -150.752L550.763 -158.724C550.53 -159.076 550.312 -159.243 549.889 -159.395L532.183 -162.437L525.21 -177.959C525.195 -178.143 524.977 -178.311 524.977 -178.311L490.343 -205.883L486.871 -205.611L523.035 -176.865L530.227 -161.175C530.46 -160.824 530.679 -160.656 531.102 -160.505L549.012 -157.479L553.817 -148.62L549.298 -119.819C549.327 -119.452 549.356 -119.085 549.575 -118.918L556.906 -111.92C557.139 -111.569 557.766 -111.433 558.16 -111.649L588.83 -121.447L593.081 -111.806L559.011 -85.1171L541.885 -67.7017L426.924 -163.035L468.111 -203.768L464.639 -203.495L424.444 -163.21L396.821 -135.55L338.057 -159.01L326.566 -179.72L336.381 -193.42L333.318 -193.18L311.833 -163.231C311.614 -163.398 311.41 -163.382 311.002 -163.35C310.593 -163.318 310.403 -163.119 310.009 -162.903C309.644 -162.32 309.687 -161.769 310.329 -161.45L295.519 -140.707L274.831 -152.936C279.665 -159.411 284.704 -165.903 289.523 -172.561C292.503 -176.49 295.468 -180.602 298.651 -184.546C300.331 -186.71 301.82 -188.674 303.31 -190.638L284.725 -189.178C282.839 -184.412 281.07 -180.764 279.405 -178.416C279.04 -177.834 278.661 -177.434 278.295 -176.851L259.006 -186.973L253.083 -186.508L247.168 -178.101C246.803 -177.518 247.05 -176.983 247.488 -176.648C248.129 -176.329 248.727 -176.561 249.107 -176.96L255.577 -186.15L276.587 -175.055C265.064 -159.557 250.357 -140.115 234.146 -118.893L187.41 -135.725L211.814 -183.451L208.955 -183.227L207.537 -180.345L201.602 -182.649L196.497 -182.248L206.47 -178.229L182.418 -131.269L167.235 -102.185C167.25 -102.001 167.046 -101.985 167.06 -101.802L163.927 -73.6637L56.5228 -72.8005L71.7943 -87.669C72.1739 -88.0682 72.3349 -88.635 71.8831 -89.1536L55.3159 -109.094L92.5282 -174.266L89.6689 -174.042L53.3336 -110.786L2.02018 -146.654L2.2509 -143.716L52.9083 -108.351L69.0383 -88.7455L45.1821 -65.4448L10.8164 -34.6688L11.0471 -31.7315L44.0697 -61.2936C42.3855 -53.9575 38.6208 -36.4833 34.8272 -19.3763C33.9335 -15.0577 32.8211 -10.9066 31.913 -6.77155C31.2858 -6.90699 30.6731 -6.85887 30.046 -6.99432C23.6138 -7.78212 17.9987 -8.63403 12.8064 -9.3345L13.7869 3.14914C13.9911 3.1331 14.3996 3.10102 14.6038 3.08498C17.4919 3.22754 22.4367 3.3932 29.2774 4.14892C27.0214 14.6701 25.1618 22.3895 25.205 22.9402C25.0729 23.8742 24.6384 36.6536 26.2149 51.4917L18.1995 59.3251L18.4302 62.2624L26.4312 54.2454C27.6759 64.861 29.7954 76.1469 33.7553 84.7021C29.3631 86.3401 24.9853 88.1617 20.5932 89.7997L21.5449 101.916C27.1336 99.8147 32.9121 97.5137 38.5008 95.4122C44.3974 107.694 59.3646 138.659 61.2701 144.605C61.8084 146.225 65.8524 158.468 72.2537 177.176C73.0826 179.881 74.1447 182.938 75.2068 185.995L29.2596 200.132L29.6202 204.722L76.574 190.32C99.3413 257.8 141.923 383.94 146.445 399.655C140.726 400.104 134.789 400.386 128.866 400.851C116.802 401.614 107.408 402.352 103.907 402.257C103.703 402.273 103.499 402.29 103.09 402.322C95.7377 402.899 71.2251 409.997 45.9533 417.892L46.3138 422.482C73.1906 414.091 98.0972 406.777 103.64 406.712C107.331 406.606 116.944 406.036 129.008 405.273C134.318 404.856 140.46 404.558 146.995 404.045C148.5 417.965 155.507 475.784 157.533 493.727L83.9497 517.055L62.5845 511.899L51.3897 487.103L51.952 494.262L59.6531 511.205L53.1633 509.683L54.0574 521.065L55.487 520.953ZM155.83 424.963L211.391 410.254L216.903 428.108L183.65 439.032C183.256 439.248 182.876 439.647 182.905 440.014L182.799 459.602L173.066 463.876L165.697 451.156C165.449 450.621 164.822 450.486 164.414 450.518L159.161 451.669C157.827 442.538 156.669 433.024 155.83 424.963ZM163.749 491.761C162.72 483.899 160.954 469.261 159.13 453.888L163.58 452.985L171.168 465.873C171.415 466.407 172.247 466.527 172.845 466.295L184.359 461.142C184.753 460.927 185.132 460.527 185.104 460.16L185.209 440.572L218.667 429.632C219.265 429.4 219.63 428.817 219.383 428.283L213.303 408.442C213.056 407.907 212.619 407.572 212.006 407.62L211.802 407.636L155.439 422.592C154.353 413.996 153.6 407.036 153.093 403.196C181.321 401.533 214.274 399.869 219.8 402.205C227.441 405.299 270.448 432.214 297.491 449.485L163.749 491.761ZM331.035 505.035C324.441 489.114 317.586 472.474 311.225 456.903L320.651 453.946L394.182 440.413C395.501 449.36 398.373 467.606 401.417 488.055L331.035 505.035ZM460.403 412.306C458.022 416.003 453.877 418.176 447.4 419.423L317.962 443.259C317.758 443.275 317.35 443.307 317.16 443.507L306.932 446.712C295.287 418.811 285.695 396.106 283.453 391.11L327.255 378.434C327.853 378.202 328.233 377.803 328.19 377.252L324.138 325.665L366.618 322.329C366.822 322.313 367.026 322.297 367.216 322.097L415.371 286.359L418.372 290.556C433.639 312.262 445.944 335.493 455.025 359.531C464.146 386.707 465.91 403.931 460.403 412.306ZM218.485 100.3L215.885 72.4281C215.885 72.4281 215.885 72.4281 216.089 72.412C281.05 114.596 320.018 139.797 337.323 150.813L318.233 177.249L258.739 154.954C258.535 154.97 258.316 154.803 258.112 154.819C257.703 154.851 257.309 155.066 257.134 155.45C256.769 156.032 257.235 156.735 257.862 156.87L348.256 190.592L364.461 239.931L343.579 264.475L254.164 245.824L262.962 211.33C263.123 210.763 262.656 210.061 262.029 209.925C261.825 209.941 261.825 209.941 261.621 209.957C261.008 210.005 260.629 210.405 260.453 210.788L251.465 245.481L223.077 247.711L228.18 202.794L218.485 100.3ZM147.822 56.1626C163.743 65.2561 185.449 79.9907 200.217 90.0983C200.012 90.1143 200.012 90.1144 199.823 90.314L191.925 97.0299L162.229 93.0821L142.969 67.6268L147.822 56.1626ZM140.825 66.5021L104.405 63.2673C108.595 59.0592 114.071 52.9029 120.671 45.3653C130.981 48.4345 139.862 51.6159 145.664 54.8544L140.825 66.5021ZM147.824 53.5765C142.007 50.1544 132.908 46.8054 122.379 43.5687C125.753 39.4247 129.52 35.065 133.653 30.1226C158.252 39.8274 185.168 52.8598 213.29 70.7847L215.832 97.9228C206.488 91.4529 170.408 66.395 147.824 53.5765ZM212.165 56.4653C187.337 41.2371 163.41 29.6323 141.13 20.669C148.431 11.5986 156.478 1.54611 165.08 -9.28884L210.504 22.2389L212.165 56.4653ZM144.286 -1.92943L114.082 -7.1302L116.864 -18.801L152.494 -12.5487C149.704 -8.81999 146.901 -5.27491 144.286 -1.92943ZM166.584 -11.0694C178.909 -26.8147 192.345 -44.125 206.511 -62.6009L210.477 19.2855L166.584 -11.0694ZM642.904 -105.376L611.035 -76.8277L596.041 -110.746L616.755 -126.965L642.904 -105.376ZM618.682 -128.594L630.491 -137.834L636.919 -131.874C637.137 -131.706 637.56 -131.555 637.969 -131.587C638.377 -131.619 638.567 -131.819 638.961 -132.034L656.017 -152.954L674.204 -133.325L644.627 -106.989L618.682 -128.594ZM620.375 -49.4847C620.389 -49.3011 620.608 -49.1336 620.827 -48.9661L640.755 -35.9389L614.256 -9.6599C614.066 -9.46028 613.891 -9.07709 613.92 -8.7099C613.948 -8.34275 614.167 -8.17515 614.386 -8.00761L631.268 2.85744L563.219 67.8654C563.029 68.065 562.854 68.4482 562.868 68.6318L565.06 96.5362L519.521 126.343C519.317 126.359 519.332 126.542 519.142 126.742L504.988 147.988L482.678 154.358L459.343 150.28L456.186 141.477L441.156 99.2495L527.768 8.95538L583.236 -48.7841L609.923 -72.6766L620.375 -49.4847ZM364.788 136.834L395.95 196.081L382.219 201.778L357.073 151.109C356.593 150.223 355.922 149.537 355.048 148.867C355.048 148.867 352.89 147.559 348.779 144.926L364.788 136.834ZM346.592 143.251C330.571 132.872 290.757 107.369 223.201 63.5412C220.387 61.7304 217.573 59.9195 214.76 58.1087L213.113 24.0658L355.028 122.454L363.608 134.895L346.592 143.251ZM453.283 141.151L421.635 151.579L403.169 117.934L438.791 100.544L453.283 141.151ZM425.939 70.3364L452.904 44.7595L473.558 61.7934L440.137 96.7436L425.939 70.3364ZM449.856 204.777L438.135 181.131L459.557 171.32L491.046 192.86L449.856 204.777ZM492.824 194.568L499.792 215.262C499.559 214.911 499.136 214.76 498.727 214.792L498.523 214.808L459.873 225.048L450.831 206.732L492.824 194.568ZM458.377 169.381L436.955 179.191L422.814 153.519L454.069 143.306L456.964 151.39L458.377 169.381ZM434.766 180.102L412.659 189.043L381.6 128.495L401.184 118.829L434.766 180.102ZM410.28 190.153L398.139 195.17L366.773 135.94L379.235 129.789L410.28 190.153ZM397.13 198.02L458.931 315.078L449.738 318.386C443.476 306.686 436.412 295.235 428.764 284.199L410.015 257.41L383.398 203.717L397.13 198.02ZM399.319 197.11L411.474 192.276L471.917 310.363L461.338 314.334L399.319 197.11ZM413.649 191.181L435.756 182.241L495.279 301.694L474.106 309.452L413.649 191.181ZM496.254 303.649L531.276 370.166C523.861 375.182 516.943 378.68 510.742 380.83L475.286 311.392L496.254 303.649ZM498.648 302.722L526.211 292.614L561.857 346.152L535.946 366.844C534.969 367.475 534.195 368.09 533.217 368.721L498.648 302.722ZM497.672 300.767L490.829 286.897L521.163 278.049L525.44 290.643L497.672 300.767ZM489.635 284.774L478.423 262.381L512.914 254.13L520.173 275.91L489.635 284.774ZM477.447 260.425L460.863 227.186L499.119 217.162C499.717 216.931 499.893 216.547 500.068 216.164L512.143 252.159L477.447 260.425ZM496.817 198.318L521.86 184.898L526.962 189.669C527.413 190.188 528.23 190.124 528.61 189.725C529.194 189.309 529.136 188.575 528.699 188.24L522.942 182.966C522.723 182.799 522.3 182.647 521.892 182.679C521.687 182.695 521.483 182.711 521.293 182.911L495.856 196.546L494.808 193.673L503.213 175.095L558.016 142.899L571.755 160.845L563.713 165.725C563.523 165.925 563.334 166.124 563.158 166.508C563.187 166.875 563.201 167.058 563.435 167.41L573.896 180.257C574.115 180.424 574.129 180.608 574.334 180.592L519.588 229.223L507.887 231.99L496.817 198.318ZM566.265 166.818L574.103 161.954C574.292 161.754 574.482 161.554 574.658 161.171C574.629 160.804 574.614 160.621 574.381 160.269L559.957 141.453L584.316 127.164C584.141 127.547 584.169 127.914 584.402 128.266L603.81 152.971C604.028 153.138 604.247 153.306 604.451 153.29L575.823 178.628L575.809 178.444L566.265 166.818ZM586.781 127.155C586.548 126.804 586.125 126.652 585.717 126.685L710.487 53.8965L726.946 64.6101L723.782 94.967L619.108 141.055C618.904 141.072 618.918 141.255 618.714 141.271L606.027 152.427C606.013 152.243 606.013 152.243 605.794 152.076L586.781 127.155ZM501.814 172.989C501.624 173.188 501.435 173.388 501.245 173.587L492.987 191.415L460.638 169.388L459.312 152.499L482.02 156.441C482.224 156.425 482.429 156.409 482.633 156.393L505.745 149.775C505.949 149.759 506.343 149.544 506.533 149.344L520.891 128.082L567.013 97.8605C567.407 97.6449 567.583 97.2616 567.554 96.8945L565.362 68.99L633.221 4.18177L708.315 52.4046L501.814 172.989ZM509.666 24.4155L496.402 12.5273L512.068 -2.55678L525.259 8.41351L509.666 24.4155ZM526.749 6.44937L512.683 -5.19107C512.464 -5.3586 512.041 -5.51006 511.837 -5.49402C511.633 -5.47798 511.239 -5.26235 511.049 -5.06273L494.624 10.8198L480.691 -1.75457L514.768 -36.2021L543.671 -10.95L526.749 6.44937ZM507.943 26.0286L475.077 60.1964L453.752 42.4764L444.511 34.7054L478.968 -0.141478L507.943 26.0286ZM451.155 43.4192L424.744 68.2136L409.076 38.7818L423.898 20.8085L441.914 35.6482L451.155 43.4192ZM423.284 70.5449L438.006 98.3887L402.193 115.979L372.48 51.6309L407.134 40.2273L423.284 70.5449ZM400.209 116.874L380.624 126.539L338.818 62.5871L370.262 52.1745L400.209 116.874ZM378.246 127.65L365.783 133.801L356.984 121.192C356.969 121.009 356.765 121.025 356.751 120.841L245.26 43.5217L260.099 23.1459L307.962 51.7114C308.603 52.0304 309.216 51.9823 309.581 51.3995C309.946 50.8166 309.903 50.2659 309.262 49.9469L213.084 -7.70277L243.315 -15.2494L326.756 45.0631L335.521 62.4766L378.246 127.65ZM211.51 -9.42632L208.746 -65.5471C211.739 -69.2918 214.719 -73.2202 217.698 -77.1484L233.21 -68.0229L242.339 -17.2046L211.51 -9.42632ZM258.16 22.0052L243.306 42.1975L212.883 21.1285L211.594 -5.73866L258.16 22.0052ZM252.294 248.187L343.591 267.245C344.014 267.397 344.612 267.165 344.788 266.782L366.619 241.239C366.808 241.039 366.984 240.656 366.751 240.305L350.255 189.881C350.226 189.513 349.803 189.362 349.585 189.194L320.377 178.374L339.086 152.337C342.556 154.651 344.932 156.127 346.23 156.948L398.486 262.379C398.501 262.563 398.734 262.914 398.953 263.081L413.768 284.268L365.599 319.823L322.302 323.224C321.689 323.272 321.12 323.871 321.163 324.421L325.244 376.375L282.055 389.003L262.282 349.18C262.268 348.997 262.063 349.013 262.049 348.829L235.652 326.705L228.606 278.863C228.577 278.496 228.359 278.328 228.14 278.161L217.614 272.338L212.279 251.515L252.309 248.371L252.294 248.187ZM450.713 320.341L472.893 312.318L508.349 381.757C501.914 383.555 495.992 384.02 490.742 382.586C477.748 379.358 470.554 366.254 466.435 355.679C461.997 343.652 456.756 331.873 450.713 320.341ZM472.712 414.664C475.884 407.95 476.621 399.026 474.881 387.341C478.788 389.99 482.842 391.888 487.246 393.02C491.854 394.135 497.018 394.469 502.109 393.884L477.571 413.729L472.712 414.664ZM502.369 412.889C500.327 413.049 498.489 413.194 496.446 413.354L579.959 346.393L604.359 366.642C585.121 380.714 569.97 391.878 569.429 392.844C568.523 394.393 566.138 403.262 564.542 409.114C546.293 409.624 522.18 411.333 502.369 412.889ZM672.598 317.135C656.075 329.147 628.648 348.849 606.301 365.197L581.901 344.947L640.671 297.847L672.598 317.135ZM642.393 296.234L691.879 256.512L693.551 327.496L675.619 316.344L642.393 296.234ZM578.721 409.108C575.22 409.014 571.325 409.135 567.007 409.105C568.939 402.303 571.032 394.935 571.572 393.969C572.711 392.771 587.089 382.222 606.123 368.166L648.539 403.255L652.232 416.264C627.117 413.065 596.006 409.413 578.721 409.108ZM654.945 416.79L650.947 402.512C650.932 402.328 650.714 402.16 650.495 401.993L641.268 394.405L665.288 383.652L685.895 421.009C679.667 420.205 668.232 418.517 654.945 416.79ZM718.84 364.299L710.821 408.707L688.783 421.151L667.667 382.542L716.305 360.804L718.84 364.299ZM714.527 359.097L639.286 392.714L607.86 366.736C628.66 351.618 654.336 333.162 674.756 318.443L693.548 330.082L693.678 331.734C693.764 332.836 694.055 333.921 694.959 334.959L714.527 359.097ZM772.22 180.564C767.828 182.202 765.231 183.145 765.041 183.345C764.443 183.576 763.859 183.992 763.275 184.407L618.306 300.896L618.401 260.252C622.14 255.525 670.217 192.64 682.86 180.933C691.109 173.451 732.621 176.101 764.767 179.857C764.971 179.84 765.19 180.008 765.19 180.008C765.19 180.008 765.19 180.008 765.394 179.992C767.859 179.983 770.135 180.174 772.22 180.564ZM602.476 240.63C602.243 240.279 601.82 240.127 601.411 240.159C601.207 240.176 601.003 240.192 600.813 240.391L600.215 240.623C598.203 238.564 596.178 236.322 594.167 234.264C594.371 234.247 594.78 234.215 594.969 234.016L622.574 211.344L639.216 229.617C628.949 242.799 620.186 254.201 617.193 257.945C612.514 253.326 607.151 247.836 601.788 242.346L601.978 242.147C602.562 241.732 602.723 241.165 602.476 240.63ZM593.206 232.492C593.016 232.691 592.826 232.891 592.84 233.075C584.548 224.306 577.801 216.893 576.826 214.938C578.71 212.758 591.031 202.185 604.125 190.997L621 209.621L593.206 232.492ZM764.157 177.318C745.079 175.123 717.978 172.818 699.598 174.262C691.02 174.936 684.148 176.399 681.286 179.21C674.001 185.878 655.82 208.179 640.501 227.669L605.848 189.384C611.629 184.497 617.6 179.41 622.811 175.121C623.395 174.706 623.337 173.972 622.9 173.637C622.681 173.469 622.258 173.318 621.85 173.35C621.646 173.366 621.237 173.398 621.047 173.598C610.245 182.574 575.37 212.097 574.317 214.396C573.952 214.979 573.251 216.511 598.069 242.084L570.44 259.216L567.019 252.281C566.771 251.747 565.925 251.444 565.327 251.675C564.729 251.907 564.378 252.674 564.626 253.208L568.761 261.38C568.994 261.731 569.213 261.899 569.635 262.05C570.058 262.202 570.452 261.986 570.657 261.97L586.332 252.242L591.183 259.065L570.354 273.816C569.77 274.231 569.624 274.981 570.061 275.316C570.513 275.835 571.344 275.955 571.724 275.555L593.531 260.173C594.114 259.758 594.071 259.207 593.824 258.673L588.288 250.98L599.657 243.992C604.335 248.611 609.698 254.101 615.965 260.628L615.81 303.124L563.623 345.09L527.759 291.384L508.483 234.344L520.374 231.378C520.578 231.362 520.768 231.163 520.972 231.147L620.098 143.194L706.079 105.039L715.522 131.081C715.755 131.432 716.192 131.767 716.615 131.919L764.677 134.239L764.157 177.318ZM755.673 90.2454L764.799 112.248L764.504 132.036L717.478 129.819L708.268 104.128L725.546 96.4909C725.94 96.2753 726.115 95.8921 726.29 95.5088L729.336 66.2694L755.673 90.2454ZM763.151 -15.9986L747.824 -20.1514L742.564 -42.6429L761.132 -41.7L763.151 -15.9986ZM747.145 -91.5825L737.892 -70.7219C737.731 -70.1551 737.993 -69.4369 738.62 -69.3014C739.247 -69.166 740.05 -69.4137 740.211 -69.9805L749.653 -91.0407L762.404 -93.5201L773.974 -79.6516L760.348 -62.1418L737.679 -60.3611C737.066 -60.313 736.496 -59.7141 736.54 -59.1634C736.583 -58.6126 737.239 -58.1101 737.852 -58.1582L759.704 -59.8747L760.945 -44.0866L741.136 -45.1167L740.932 -45.1007C740.524 -45.0686 740.334 -44.8689 740.144 -44.6693C739.954 -44.4697 739.779 -44.0865 739.808 -43.7193L745.431 -19.2246C745.459 -18.8574 745.897 -18.5223 746.32 -18.3708L763.105 -13.9632L755.071 30.2605L744.672 28.6761C744.045 28.5406 743.461 28.9559 743.3 29.5227L731.73 65.3426L729.077 62.9649L616.983 -8.95053L642.709 -34.6147L712.043 10.9204C712.48 11.2555 713.297 11.1913 713.662 10.6085L723.987 -1.83942C724.366 -2.23869 724.309 -2.97306 723.653 -3.47567C723.215 -3.81074 722.398 -3.74657 721.829 -3.14768L712.249 8.31824L682.131 -11.4817L694.702 -24.1062C695.081 -24.5054 695.024 -25.2398 694.586 -25.5748L660.58 -53.0122L674.873 -67.2496L703.067 -95.5088L717.656 -82.4318C718.108 -81.9132 718.925 -81.9774 719.509 -82.3926C720.093 -82.8079 720.035 -83.5422 719.583 -84.0609L704.775 -97.3055L720.017 -112.541L747.145 -91.5825ZM644.431 -36.2277L659.484 -51.2636L692.397 -24.6641L680.396 -12.6385L644.431 -36.2277ZM718.691 -113.73L703.434 -98.6779L690.841 -109.88C690.622 -110.047 690.2 -110.199 689.995 -110.183L680.543 -110.179C679.93 -110.131 679.346 -109.716 679.404 -108.982C679.447 -108.431 679.899 -107.912 680.73 -107.793L689.57 -107.748L701.74 -96.6977L674.292 -69.4205L657.835 -82.7203C657.617 -82.8879 657.194 -83.0393 656.99 -83.0233C656.785 -83.0073 656.391 -82.7916 656.201 -82.592C655.822 -82.1927 655.675 -81.4424 656.331 -80.9397L672.788 -67.6399L642.492 -37.3684L622.768 -50.4115L612.244 -74.5213L686.552 -140.944L718.691 -113.73ZM621.794 -198.845L636.062 -216.036L671.815 -184.672L699.572 -166.165L710.19 -148.712L686.35 -143.515C686.146 -143.499 685.956 -143.299 685.956 -143.299L676.35 -134.786L657.274 -155.269L621.794 -198.845ZM634.176 -179.869L654.444 -154.677L637.957 -134.357L631.543 -140.133L611.473 -157.582L634.176 -179.869ZM609.75 -155.969L628.728 -139.358L616.728 -129.919L598.479 -145.109L609.75 -155.969ZM588.482 -123.267L558.001 -113.669L551.559 -119.812L555.917 -148.046L563.015 -157.101L595.445 -144.502L588.482 -123.267ZM590.801 -122.525L597.413 -142.994L614.787 -128.473L594.847 -112.868L590.801 -122.525ZM560.818 -83.0425L594.1 -109.3L609.108 -75.1985L582.421 -51.3061L554.35 -76.4388L560.818 -83.0425ZM543.574 -64.5095C543.953 -64.9087 543.925 -65.276 543.677 -65.8106L552.627 -74.8258L580.699 -49.693L544.985 -12.5309L516.082 -37.7831L542.159 -64.2136C542.581 -64.0621 543.194 -64.1103 543.574 -64.5095ZM540.205 -65.5379L442.558 33.381L425.402 19.0279L456.346 -18.6832C456.711 -19.266 456.668 -19.8168 456.012 -20.3194C455.37 -20.6384 454.758 -20.5903 454.188 -19.9914L423.799 16.9372L413.304 -6.80541L487.878 -109.084L540.205 -65.5379ZM370.29 5.43954C370.538 5.97426 371.179 6.29325 371.777 6.06155L391.052 0.299165C391.65 0.0674623 392.015 -0.515386 391.972 -1.06615L388.178 -15.3606L404.55 -21.4492L417.011 6.38754L357.626 24.721L351.361 -0.0928377L365.443 -6.55564L370.29 5.43954ZM367.428 -7.45037L386.004 -14.2662L389.493 -1.24083L372.421 3.79439L367.428 -7.45037ZM387.591 -59.4612L395.073 -42.6858L342.778 -25.6481L336.069 -43.0384L387.591 -59.4612ZM335.079 -45.1772L326.086 -68.1142L380.173 -83.2608L386.615 -61.4164L335.079 -45.1772ZM389.518 -61.0903L382.77 -84.2037L425.878 -103.106L459.24 -73.4013L412.489 -9.32743L406.273 -23.0622L397.772 -42.3436L389.518 -61.0903ZM486.114 -110.608L460.525 -75.3494L427.819 -104.551L459.498 -132.9L486.114 -110.608ZM425.449 -160.888L457.545 -134.224L426.055 -106.075L398.774 -134.225L425.449 -160.888ZM397.256 -132.628L424.099 -104.813L381.605 -85.9593L368.589 -97.3128L384.901 -117.25L397.256 -132.628ZM325.091 -177.572L336.101 -157.749C336.319 -157.581 336.334 -157.397 336.757 -157.246L395.302 -133.953L383.488 -119.541L313.976 -162.106L325.091 -177.572ZM312.691 -160.158L381.999 -117.576L366.432 -98.621L297.677 -139.399L312.691 -160.158ZM296.581 -137.651L364.053 -97.5107L326.306 -86.2336L277.316 -110.831L296.581 -137.651ZM273.735 -151.187L294.438 -138.775L275.188 -111.773L252.719 -123.122C259.584 -132.528 266.667 -141.766 273.735 -151.187ZM251.215 -121.342L325.458 -83.9504C325.677 -83.7828 326.085 -83.8149 326.494 -83.847L366.444 -95.8513L378.789 -85.184L324.307 -69.8217C323.899 -69.7896 323.709 -69.5899 323.534 -69.2067C323.344 -69.0071 323.373 -68.64 323.402 -68.2728L340.676 -23.6358C340.923 -23.1011 341.565 -22.782 342.163 -23.0137L395.655 -40.5149L403.385 -23.2047L365.052 -8.92617L348.999 -1.385C348.401 -1.1533 348.24 -0.586457 348.283 -0.0357239L355.115 26.7654L358.229 35.0177C358.476 35.5524 359.118 35.8714 359.716 35.6397C360.315 35.408 360.68 34.8251 360.432 34.2904L357.799 26.924L417.388 8.57443L421.901 18.9335L406.524 37.6892L337.215 60.4965L328.712 43.8012C328.697 43.6177 328.478 43.4501 328.274 43.4661L244.41 -16.9978L234.991 -68.9016C234.962 -69.2687 234.743 -69.4363 234.525 -69.6038L218.575 -79.0645C229.425 -92.662 240.218 -106.994 251.215 -121.342ZM170.152 -101.675L185.145 -130.56L186.942 -133.841L233.255 -117.16C222.638 -103.212 211.655 -88.6802 200.468 -74.1326L166.991 -73.9043L170.152 -101.675ZM48.1711 -64.0171L55.6603 -70.7009L198.789 -71.9689C183.498 -52.1117 168.207 -32.2544 154.202 -14.3453L116.268 -21.1555L41.6675 -34.3213C44.8027 -49.3447 47.717 -61.9495 48.1711 -64.0171ZM41.0236 -32.0542L114.384 -18.9757L111.602 -7.30484L38.2847 -19.8326C39.1784 -24.1513 40.101 -28.1027 41.0236 -32.0542ZM37.8162 -17.9487L142.593 0.050784C138.109 5.75967 133.801 11.0854 129.683 16.2114C89.8886 1.41987 56.5626 -4.27463 35.4137 -6.6771C36.1609 -10.2454 36.8936 -13.9972 37.8162 -17.9487ZM32.807 4.61051C36.5409 5.05606 40.6976 5.65317 44.8399 6.06664C63.9753 8.99675 90.7083 14.4702 121.797 25.6971C117.489 31.0227 113.547 35.7656 109.765 39.9417C76.5877 30.9107 36.1591 23.7423 28.6482 22.3004C29.4819 19.8336 31.0195 13.2478 32.807 4.61051ZM37.2127 84.2459C33.224 75.3234 31.0469 63.3033 29.7588 52.1368L29.7444 51.9533C28.3554 39.5018 28.4969 28.2231 28.6314 24.703C31.3441 25.2287 38.0093 26.3676 46.7746 28.0804L46.789 28.264L53.2962 58.7849C53.3395 59.3356 53.9953 59.8383 54.7978 59.5905C55.4105 59.5424 55.98 58.9435 55.7181 58.2252L49.2685 28.4387C65.5447 31.5933 88.3252 36.4537 108.261 41.7222C99.7769 51.4397 93.5131 58.0272 90.3896 60.1197C81.6173 66.1654 60.137 75.2413 37.2127 84.2459ZM78.0899 175.609C71.9073 157.069 67.659 144.842 67.1208 143.222C64.9822 136.925 50.2191 105.944 44.3226 93.662C67.2469 84.6574 88.3187 75.6137 97.9079 69.5038C99.0756 68.6732 100.623 67.4434 102.535 65.6307L141.232 69.0562L160.711 94.6791C160.93 94.8467 161.148 95.0142 161.571 95.1657L192.302 99.2168C192.711 99.1848 193.119 99.1527 193.309 98.9531L201.586 91.8379C201.776 91.6383 201.966 91.4386 201.952 91.255C209.342 96.4006 214.561 100.054 216.077 101.044L225.772 203.538L220.465 248.471L211.071 249.209L105.177 256.233C97.3657 232.649 88.2733 205.841 78.0899 175.609ZM105.978 258.572L210.237 251.675L215.848 273.4C215.877 273.767 216.095 273.935 216.314 274.103L226.622 279.758L233.653 327.416C233.667 327.6 233.9 327.951 234.119 328.118L260.72 350.226L280.536 390.6C280.798 391.318 291.366 415.979 304.305 447.288L303.094 447.567C286.431 436.87 231.062 401.69 221.73 397.99C215.372 395.534 186.897 396.662 152.543 398.807C150.26 390.674 136.28 348.733 105.978 258.572Z" fill="#969BAB"/>
</g>
<path d="M812 0L813 4.37114e-08L813 -1L812 -1L812 0ZM812 375L812 376L813 376L813 375L812 375ZM4.46434e-05 375L-0.999955 375L-0.999955 376L4.45997e-05 376L4.46434e-05 375ZM6.10352e-05 -3.54936e-05L6.10789e-05 -1.00004L-0.999939 -1.00004L-0.999939 -3.55374e-05L6.10352e-05 -3.54936e-05ZM811 -4.37114e-08L811 375L813 375L813 4.37114e-08L811 -4.37114e-08ZM812 374L4.46871e-05 374L4.45997e-05 376L812 376L812 374ZM1.00004 375L1.00006 -3.54499e-05L-0.999939 -3.55374e-05L-0.999955 375L1.00004 375ZM6.09914e-05 0.999965L812 1L812 -1L6.10789e-05 -1.00004L6.09914e-05 0.999965Z" fill="black"/>
<defs>
<clipPath id="clip0">
<path d="M812 0L812 375L4.46434e-05 375L6.10352e-05 -3.54936e-05L812 0Z" fill="white"/>
</clipPath>
</defs>
</svg>
