<svg width="122" height="157" viewBox="0 0 122 157" fill="none" xmlns="http://www.w3.org/2000/svg">
<g opacity="0.3">
<path d="M120.875 64.4471C120.875 113.334 61.2499 155.237 61.2499 155.237C61.2499 155.237 1.62506 113.334 1.62506 64.4471C1.62506 47.7771 7.90694 31.7899 19.0888 20.0024C30.2706 8.21491 45.4364 1.59277 61.2499 1.59277C77.0634 1.59277 92.2292 8.21491 103.411 20.0024C114.593 31.7899 120.875 47.7771 120.875 64.4471Z" stroke="#18191F" stroke-width="2" stroke-linecap="round" stroke-linejoin="round"/>
<path d="M61.2499 85.3986C72.2265 85.3986 81.1248 76.0183 81.1248 64.4471C81.1248 52.876 72.2265 43.4957 61.2499 43.4957C50.2733 43.4957 41.3749 52.876 41.3749 64.4471C41.3749 76.0183 50.2733 85.3986 61.2499 85.3986Z" stroke="#18191F" stroke-width="2" stroke-linecap="round" stroke-linejoin="round"/>
</g>
</svg>
