<svg width="126" height="120" viewBox="0 0 126 120" fill="none" xmlns="http://www.w3.org/2000/svg">
<path opacity="0.3" fill-rule="evenodd" clip-rule="evenodd" d="M27.6766 0.00583309C32.0731 -0.102225 36.6353 1.28636 40.1097 4.56217C43.6008 7.85368 49.0955 14.6099 57.176 25.3999C59.147 27.5068 59.8802 29.842 59.6086 32.2487C59.3424 34.6069 58.1266 36.9036 56.4722 39.0316C55.6802 40.0504 54.7759 41.0429 53.703 42.1192C53.1878 42.636 52.7858 43.0248 51.9588 43.815C50.2458 45.4515 48.7822 46.8492 47.5679 48.0083C47.6307 48.2049 47.735 48.4744 47.8914 48.8182C48.2998 49.7157 48.997 50.9759 49.981 52.4822C51.9454 55.4893 55.0042 59.4041 59.0479 63.2674C63.0895 67.1287 67.1916 70.0532 70.3493 71.9338C71.9301 72.8752 73.2579 73.5452 74.2102 73.9398C74.6684 74.1296 75.013 74.2444 75.2434 74.2995L79.7065 70.0374C79.7065 70.0373 79.7064 70.0374 79.7065 70.0374C82.3172 67.5431 83.7567 66.2835 85.741 65.041C89.8509 62.4674 94.6209 61.6087 98.6904 65.048C110.467 73.0893 117.229 78.0875 120.581 81.4124C127.436 88.2098 126.513 98.6697 120.624 104.611C118.697 106.555 116.26 108.882 113.39 111.522C104.37 120.13 90.4882 121.696 75.518 117.859C60.513 114.014 44.209 104.701 30.0824 91.2048C15.9557 77.7083 6.18403 62.1194 2.13904 47.7462C-1.90357 33.3815 -0.258826 20.032 8.78051 11.3973C11.8882 8.38451 12.9164 7.40372 15.9443 4.55605C18.9654 1.71486 23.2879 0.113701 27.6766 0.00583309ZM27.7233 2.1136C23.7293 2.21176 19.8868 3.67369 17.2758 6.1293C14.2544 8.97074 13.234 9.94414 10.1316 12.9518L10.1261 12.9571C1.86642 20.8448 0.136837 33.2189 4.05644 47.1466C7.97408 61.0672 17.5028 76.3411 31.4254 89.6426C45.3418 102.938 61.3547 112.06 75.9904 115.811C90.657 119.57 103.736 117.897 112.054 109.953L112.061 109.947L112.068 109.94C114.927 107.309 117.342 105.003 119.241 103.087C124.391 97.8923 125.144 88.8319 119.211 82.948C116.012 79.7752 109.404 74.8742 97.5598 66.7879L97.5153 66.7576L97.4742 66.7224C94.3102 64.0221 90.5114 64.5061 86.7624 66.8536C84.9596 67.9825 83.6429 69.1219 81.0495 71.5996L76.3242 76.1122C76.0001 76.4217 75.6081 76.4406 75.4575 76.4423C75.2554 76.4447 75.0481 76.4115 74.8599 76.3692C74.4766 76.2831 74.0058 76.1204 73.4787 75.902C72.4151 75.4614 71.0008 74.7432 69.3656 73.7694C66.0916 71.8196 61.8666 68.8057 57.7048 64.8296C53.5407 60.8513 50.3811 56.8121 48.3338 53.6779C47.3119 52.1135 46.555 50.7561 46.0881 49.7299C45.8574 49.223 45.6802 48.7594 45.5845 48.3726C45.5377 48.1838 45.4968 47.9604 45.4993 47.7335C45.5014 47.5464 45.5349 47.1046 45.8876 46.7679C47.1649 45.549 48.7408 44.044 50.6157 42.2528C51.4398 41.4654 51.8272 41.0905 52.3243 40.5918C53.3605 39.5524 54.2024 38.625 54.9254 37.6951C56.466 35.7136 57.4205 33.79 57.6226 31.9996C57.8173 30.2745 57.3288 28.5485 55.7176 26.8439L55.6769 26.8007L55.6411 26.7529C47.5229 15.9109 42.1216 9.28768 38.7764 6.13366C35.7477 3.27806 31.7095 2.01562 27.7233 2.1136Z" fill="black"/>
</svg>
