<svg width="30" height="27" viewBox="0 0 30 27" fill="none" xmlns="http://www.w3.org/2000/svg">
<path fill-rule="evenodd" clip-rule="evenodd" d="M13.3801 8.79971C14.1141 7.89537 14.3773 6.94226 13.5472 6.10096C11.6843 3.71775 10.4315 2.24398 9.64569 1.53425C8.15173 0.184957 5.69414 0.36747 4.40026 1.5331C3.70531 2.15917 3.47004 2.37416 2.75647 3.03682C-1.2182 6.67276 1.20576 14.359 7.64953 20.2562C14.0918 26.1521 22.4979 28.3695 26.4809 24.7259C27.1393 24.1455 27.6968 23.6355 28.1365 23.2106C29.4045 21.9853 29.597 19.8375 28.1282 18.4421C27.3751 17.7268 25.838 16.6366 23.1217 14.8602C22.2898 14.18 21.3034 14.3274 20.399 14.8699C19.964 15.1308 19.6474 15.3948 19.0497 15.9419L17.9642 16.9349C17.8212 17.0657 15.8798 16.1768 13.9952 14.452C12.1097 12.7264 11.1381 10.9513 11.2804 10.8212C11.5738 10.5529 11.9359 10.2217 12.3666 9.82751C12.5563 9.65394 12.647 9.56991 12.7633 9.45817C13.0055 9.22538 13.2061 9.01412 13.3801 8.79971ZM19.9665 18.7666L21.0523 17.7734C21.3812 17.4723 21.5945 17.2872 21.7679 17.1596C24.1474 18.7219 25.5255 19.7043 26.0884 20.239C26.4263 20.5601 26.3738 21.1459 26.0801 21.4298C25.6735 21.8227 25.1453 22.3059 24.497 22.8775C21.9215 25.2333 15.1359 23.4434 9.65233 18.4249C4.16702 13.4048 2.21023 7.19998 4.76634 4.86167C5.47703 4.20174 5.7022 3.99598 6.38723 3.37884C6.64408 3.14745 7.34372 3.0955 7.65617 3.37769C8.26118 3.92412 9.38346 5.23795 11.0344 7.34056C10.9489 7.43757 10.8422 7.5472 10.7123 7.67203C10.6169 7.76364 10.5375 7.83726 10.3639 7.99619C9.93345 8.39008 9.57172 8.72099 9.27866 8.98891C7.43253 10.6767 9.00476 13.5491 11.9924 16.2834C14.9781 19.0158 18.121 20.4549 19.9665 18.7666Z" fill="black"/>
</svg>
