<svg width="30" height="27" viewBox="0 0 30 27" fill="none" xmlns="http://www.w3.org/2000/svg">
<path fill-rule="evenodd" clip-rule="evenodd" d="M13.5472 6.10096C14.3773 6.94226 14.1141 7.89537 13.3801 8.79971C13.2061 9.01412 13.0055 9.22538 12.7633 9.45817C12.647 9.56991 12.5563 9.65394 12.3666 9.82751C11.9359 10.2217 11.5738 10.5529 11.2804 10.8212C11.1381 10.9513 12.1097 12.7264 13.9952 14.452C15.8798 16.1768 17.8212 17.0657 17.9642 16.9349L19.0497 15.9419C19.6475 15.3948 19.964 15.1308 20.399 14.8699C21.3034 14.3274 22.2898 14.18 23.1217 14.8602C25.838 16.6366 27.3751 17.7268 28.1282 18.4421C29.597 19.8375 29.4045 21.9853 28.1365 23.2106C27.6968 23.6355 27.1393 24.1455 26.4809 24.7259C22.4979 28.3695 14.0918 26.1521 7.64953 20.2562C1.20576 14.359 -1.2182 6.67276 2.75647 3.03682C3.47004 2.37416 3.70531 2.15917 4.40026 1.5331C5.69414 0.36747 8.15173 0.184957 9.64569 1.53425C10.4315 2.24398 11.6843 3.71775 13.5472 6.10096Z" fill="#008000"/>
</svg>
