<svg width="116" height="137" viewBox="0 0 116 137" fill="none" xmlns="http://www.w3.org/2000/svg">
<g opacity="0.3">
<path fill-rule="evenodd" clip-rule="evenodd" d="M57.9629 136C19.9876 119.598 1.00003 103.234 1.00003 86.9091L1.00003 25.5455C1.00003 19.4091 4.16463 19.4091 13.6584 13.2727C14.6825 12.6108 36.2107 1 57.9629 1C76.9204 1 92.7735 7.13636 102.267 13.2727C111.761 19.4091 114.926 19.4091 114.926 25.5455C115.093 27.3331 114.926 77.7046 114.926 86.9091C114.926 103.273 95.9381 119.636 57.9629 136Z" stroke="black"/>
<path fill-rule="evenodd" clip-rule="evenodd" d="M50.9621 74.0925L82.1844 44L92.47 53.9134L50.9621 93.9193L24.0002 67.9331L34.2858 58.0197L50.9621 74.0925Z" stroke="black"/>
</g>
</svg>
