<svg width="145" height="145" viewBox="0 0 145 145" fill="none" xmlns="http://www.w3.org/2000/svg">
<g id="&#208;&#152;&#208;&#186;&#208;&#190;&#208;&#189;&#208;&#186;&#208;&#176; &#208;&#159;&#208;&#190;&#209;&#129;&#209;&#130;&#208;&#176;&#208;&#178;&#208;&#186;&#208;&#176;" opacity="0.3">
<path id="Path" fill-rule="evenodd" clip-rule="evenodd" d="M110.105 64.5537L98.9744 42.2917H18.125V96.6667H30.2083V108.75H18.125C11.4516 108.75 6.04168 103.34 6.04168 96.6667L6.04168 42.2917C6.04168 35.6183 11.4516 30.2084 18.125 30.2084H98.9744C103.551 30.2084 107.735 32.7942 109.782 36.8879L119.478 56.2797L138.958 69.2666V96.6667C138.958 103.34 133.548 108.75 126.875 108.75H114.792V96.6667H126.875V75.7334L110.105 64.5537Z" stroke="black"/>
<path id="Path_2" fill-rule="evenodd" clip-rule="evenodd" d="M90.625 96.6666V108.75H54.375V96.6666L90.625 96.6666Z" stroke="black"/>
<path id="Path_3" fill-rule="evenodd" clip-rule="evenodd" d="M42.2917 120.833C32.2815 120.833 24.1667 112.719 24.1667 102.708C24.1667 92.6982 32.2815 84.5834 42.2917 84.5834C52.3018 84.5834 60.4167 92.6982 60.4167 102.708C60.4167 112.719 52.3018 120.833 42.2917 120.833Z" fill="#CFD8E0" stroke="black"/>
<path id="Path_4" fill-rule="evenodd" clip-rule="evenodd" d="M42.2917 108.75C45.6284 108.75 48.3334 106.045 48.3334 102.708C48.3334 99.3716 45.6284 96.6666 42.2917 96.6666C38.955 96.6666 36.25 99.3716 36.25 102.708C36.25 106.045 38.955 108.75 42.2917 108.75Z" stroke="black"/>
<path id="Path_5" fill-rule="evenodd" clip-rule="evenodd" d="M102.708 120.833C92.6982 120.833 84.5833 112.719 84.5833 102.708C84.5833 92.6982 92.6982 84.5834 102.708 84.5834C112.718 84.5834 120.833 92.6982 120.833 102.708C120.833 112.719 112.718 120.833 102.708 120.833Z" fill="#CFD8E0" stroke="black"/>
<path id="Path_6" fill-rule="evenodd" clip-rule="evenodd" d="M102.708 108.75C106.045 108.75 108.75 106.045 108.75 102.708C108.75 99.3716 106.045 96.6666 102.708 96.6666C99.3716 96.6666 96.6667 99.3716 96.6667 102.708C96.6667 106.045 99.3716 108.75 102.708 108.75Z" stroke="black"/>
</g>
</svg>
