<svg width="131" height="127" viewBox="0 0 131 127" fill="none" xmlns="http://www.w3.org/2000/svg">
<path opacity="0.3" fill-rule="evenodd" clip-rule="evenodd" d="M89.8174 0C67.1361 0 48.7186 17.7499 48.7186 39.6826C48.7186 43.6408 49.3165 47.5136 50.4798 51.2178L51.7985 55.4168L0.152785 105.261L7.62939e-06 105.408V105.621V125.884V126.384H0.500008H24.8593H25.3593V125.884V110.711H41.0988H41.5988V110.211V95.0382H57.3384H57.8384V94.5382V79.3652H89.8174C112.499 79.3652 130.916 61.6153 130.916 39.6826C130.916 17.7499 112.499 0 89.8174 0ZM49.7186 39.6826C49.7186 18.3354 67.6546 1 89.8174 1C111.98 1 129.916 18.3354 129.916 39.6826C129.916 61.0298 111.98 78.3652 89.8174 78.3652H57.3384H56.8384V78.8652V94.0382H41.0988H40.5988V94.5382V109.711H24.8593H24.3593V110.211V125.384H1.00001V105.833L52.7154 55.9217L52.9378 55.707L52.8452 55.4121L51.4339 50.9182C50.3011 47.3112 49.7186 43.5395 49.7186 39.6826ZM74.078 39.6828C74.078 31.3195 81.1079 24.5098 89.8175 24.5098C98.5271 24.5098 105.557 31.3195 105.557 39.6828C105.557 48.046 98.5271 54.8558 89.8175 54.8558C81.1079 54.8558 74.078 48.046 74.078 39.6828ZM89.8175 23.5098C80.5894 23.5098 73.078 30.7341 73.078 39.6828C73.078 48.6315 80.5894 55.8558 89.8175 55.8558C99.0456 55.8558 106.557 48.6315 106.557 39.6828C106.557 30.7341 99.0456 23.5098 89.8175 23.5098Z" fill="black"/>
</svg>
