<svg width="133" height="133" viewBox="0 0 133 133" fill="none" xmlns="http://www.w3.org/2000/svg">
<g id="&#208;&#152;&#208;&#186;&#208;&#190;&#208;&#189;&#208;&#186;&#208;&#176; &#208;&#159;&#209;&#128;&#208;&#190;&#208;&#181;&#208;&#186;&#209;&#130;&#208;&#184;&#209;&#128;&#208;&#190;&#208;&#178;&#208;&#176;&#208;&#189;&#208;&#184;&#208;&#181;" opacity="0.3">
<path id="Path" fill-rule="evenodd" clip-rule="evenodd" d="M115.057 102.902L102.771 115.189L87.0441 110.808L82.5466 112.662L74.473 126.837H57.1022L49.0733 112.614L44.5803 110.73L28.8554 115.057L16.5744 102.776L20.9553 87.0497L19.1001 82.5512L4.92596 74.4717V57.1015L19.1546 49.0727L21.0382 44.5803L16.7114 28.8553L28.9878 16.579L44.7143 20.9661L49.2079 19.1128L57.2694 4.9259H74.6446L82.6734 19.1546L87.1659 21.0382L102.888 16.7121L115.184 28.9898L110.802 44.7188L112.656 49.2134L126.843 57.275V74.6502L112.615 82.6782L110.73 87.1808L115.057 102.902Z" stroke="black"/>
<circle id="Ellipse 4" cx="66.5" cy="66.5" r="21.6667" stroke="black"/>
</g>
</svg>
